<svg width="100" height="100" viewBox="0 0 100 100" fill="none" xmlns="http://www.w3.org/2000/svg">
<path d="M62.45 49.7C62.3719 46.4457 61.0274 43.3502 58.7023 41.0719C56.3773 38.7936 53.2552 37.5121 50 37.5L62.45 49.7Z" fill="black"/>
<path d="M41 29.5C43.8251 28.2052 46.8924 27.5235 50 27.5C55.9674 27.5 61.6903 29.8705 65.9099 34.0901C70.1295 38.3097 72.5 44.0326 72.5 50C72.4985 52.6506 72.0069 55.2781 71.05 57.75L85 70.7C91.2282 64.7792 96.313 57.7622 100 50C100 50 85 15 50 15C43.1055 14.9638 36.2841 16.4134 30 19.25L41 29.5ZM10 10L5 15L17.75 27C10.2791 33.3306 4.23027 41.1685 0 50C0 50 15 85 50 85C58.0962 85.0334 66.072 83.0395 73.2 79.2L90 95L95 90L10 10ZM50 72.5C44.0326 72.5 38.3097 70.1295 34.0901 65.9099C29.8705 61.6903 27.5 55.9674 27.5 50C27.5276 46.135 28.5616 42.3439 30.5 39L38.15 46.2C37.7381 47.4254 37.5189 48.7073 37.5 50C37.4949 52.035 37.9888 54.0403 38.9383 55.8402C39.8879 57.6401 41.2642 59.1798 42.9467 60.3245C44.6293 61.4693 46.5668 62.1841 48.5896 62.4064C50.6125 62.6288 52.659 62.3519 54.55 61.6L62.25 68.85C58.6091 71.2333 54.3516 72.5018 50 72.5Z" fill="black"/>
</svg>
