<svg width="100" height="100" viewBox="0 0 100 100" fill="none" xmlns="http://www.w3.org/2000/svg">
<path d="M64.9869 49.9938C64.9869 57.938 58.2649 64.3781 49.9728 64.3781C41.6808 64.3781 34.9588 57.938 34.9588 49.9938C34.9588 42.0495 41.6808 35.6095 49.9728 35.6095C58.2649 35.6094 64.9869 42.0495 64.9869 49.9938ZM50 20.0435C41.4146 20.0815 32.5155 22.1716 24.0913 26.1732C17.8365 29.2667 11.7408 33.6312 6.4495 39.0183C3.85067 41.7682 0.535917 45.75 0 49.9985C0.0633333 53.6785 4.01083 58.2209 6.4495 60.9787C11.4114 66.1542 17.3483 70.3969 24.0913 73.827C31.9473 77.6395 40.6427 79.8346 50 79.9567C58.5936 79.918 67.4907 77.8039 75.9055 73.827C82.1603 70.7335 88.2591 66.3658 93.5505 60.9787C96.1492 58.2288 99.464 54.2469 100 49.9985C99.9367 46.3184 95.9892 41.7759 93.5505 39.0181C88.5886 33.8426 82.6485 29.6032 75.9055 26.173C68.0537 22.3634 59.3368 20.1834 50 20.0435ZM49.9937 27.4808C63.0036 27.4808 73.5499 37.5636 73.5499 50.0017C73.5499 62.4398 63.0036 72.5225 49.9937 72.5225C36.9838 72.5225 26.4374 62.4396 26.4374 50.0017C26.4374 37.5636 36.9838 27.4808 49.9937 27.4808Z" fill="black"/>
</svg>
