<svg width="108" height="108" viewBox="0 0 108 108" fill="none" xmlns="http://www.w3.org/2000/svg">
<path d="M72 13.5C77.9674 13.5 83.6903 15.8705 87.9099 20.0901C92.1295 24.3097 94.5 30.0326 94.5 36V72C94.5 77.9674 92.1295 83.6903 87.9099 87.9099C83.6903 92.1295 77.9674 94.5 72 94.5H36C30.0326 94.5 24.3097 92.1295 20.0901 87.9099C15.8705 83.6903 13.5 77.9674 13.5 72V36C13.5 30.0326 15.8705 24.3097 20.0901 20.0901C24.3097 15.8705 30.0326 13.5 36 13.5H72ZM54 36C49.2261 36 44.6477 37.8964 41.2721 41.2721C37.8964 44.6477 36 49.2261 36 54C36 58.7739 37.8964 63.3523 41.2721 66.7279C44.6477 70.1036 49.2261 72 54 72C58.7739 72 63.3523 70.1036 66.7279 66.7279C70.1036 63.3523 72 58.7739 72 54C72 49.2261 70.1036 44.6477 66.7279 41.2721C63.3523 37.8964 58.7739 36 54 36ZM54 45C56.3869 45 58.6761 45.9482 60.364 47.636C62.0518 49.3239 63 51.6131 63 54C63 56.3869 62.0518 58.6761 60.364 60.364C58.6761 62.0518 56.3869 63 54 63C51.6131 63 49.3239 62.0518 47.636 60.364C45.9482 58.6761 45 56.3869 45 54C45 51.6131 45.9482 49.3239 47.636 47.636C49.3239 45.9482 51.6131 45 54 45ZM74.25 29.25C73.0565 29.25 71.9119 29.7241 71.068 30.568C70.2241 31.4119 69.75 32.5565 69.75 33.75C69.75 34.9435 70.2241 36.0881 71.068 36.932C71.9119 37.7759 73.0565 38.25 74.25 38.25C75.4435 38.25 76.5881 37.7759 77.432 36.932C78.2759 36.0881 78.75 34.9435 78.75 33.75C78.75 32.5565 78.2759 31.4119 77.432 30.568C76.5881 29.7241 75.4435 29.25 74.25 29.25Z" fill="white"/>
</svg>
